<svg width="300" height="300" viewBox="0 0 300 300" fill="none" xmlns="http://www.w3.org/2000/svg">
<path d="M150.195 0C127.323 0 5.06075 131.089 14.5208 166.753C18.8916 183.117 68.5269 185.994 68.5269 185.994C68.5269 185.994 85.052 221.838 80.0226 239.7C78.0468 246.653 57.3904 271.349 91.4585 292.927C91.4585 292.927 110.618 280.879 111.636 256.484C111.516 259.001 109.959 292.028 131.574 300C131.574 300 150.195 296.044 150.254 258.761C150.254 296.044 168.935 300 168.935 300C190.549 292.028 188.993 259.001 188.873 256.484C189.891 280.939 209.05 292.927 209.05 292.927C243.119 271.349 222.462 246.653 220.486 239.7C215.397 221.838 231.982 185.994 231.982 185.994C231.982 185.994 281.677 183.117 285.988 166.753C295.388 131.089 173.126 0 150.195 0Z" fill="#EF2E7B"/>
<path d="M186.837 212.128C163.367 212.128 161.211 202.358 150.194 202.358C139.178 202.358 137.022 212.128 113.552 212.128C88.824 212.128 68.8261 188.931 68.8261 160.28C68.8261 133.307 85.7704 106.154 120.976 109.211C138.699 110.709 143.369 118.142 150.194 118.142C157.02 118.142 161.69 110.709 179.413 109.211C214.619 106.154 231.563 133.307 231.563 160.28C231.623 188.931 211.565 212.128 186.837 212.128Z" fill="#771185"/>
<path d="M184.682 114.845C169.474 114.845 156.362 124.376 150.195 138.162C144.028 124.376 130.915 114.845 115.707 114.845C94.5718 114.845 77.448 133.247 77.448 155.904C77.448 178.561 94.5718 196.963 115.707 196.963C130.915 196.963 144.028 187.433 150.195 173.646C156.362 187.433 169.474 196.963 184.682 196.963C205.757 196.963 222.881 178.561 222.881 155.904C222.941 133.247 205.817 114.845 184.682 114.845ZM118.701 163.996C106.187 163.996 96.0687 154.406 96.0687 142.597C96.0687 130.789 106.187 121.199 118.701 121.199C131.215 121.199 141.333 130.789 141.333 142.597C141.273 154.406 131.155 163.996 118.701 163.996ZM181.748 163.996C169.234 163.996 159.116 154.406 159.116 142.597C159.116 130.789 169.234 121.199 181.748 121.199C194.262 121.199 204.38 130.789 204.38 142.597C204.38 154.406 194.262 163.996 181.748 163.996Z" fill="white"/>
</svg>
